<svg width="80" height="100" viewBox="0 0 80 100" fill="none" xmlns="http://www.w3.org/2000/svg">
<path d="M40.002 0C18.016 0 0 16.722 0 37.13C0 45.037 2.714 52.384 7.306 58.425L35.12 96.802C39.015 101.539 41.604 100.639 44.843 96.552L75.523 54.336C76.143 53.292 76.629 52.182 77.053 51.046C78.946 46.742 79.999 42.046 79.999 37.13C80 16.722 61.989 0 40.002 0ZM39.998 14.085C40.369 14.085 40.728 14.212 41.004 14.443L62.393 32.307C63.421 33.164 62.769 34.75 61.388 34.749H57.56V57.33C57.56 58.102 56.887 58.728 56.058 58.728H23.942C23.112 58.728 22.44 58.102 22.44 57.33V34.75H18.612C17.232 34.751 16.579 33.165 17.607 32.308L38.996 14.444C39.2781 14.2117 39.6325 14.0851 39.998 14.086V14.085Z" fill="black"/>
</svg>
