<svg width="188" height="141" viewBox="0 0 188 141" fill="none" xmlns="http://www.w3.org/2000/svg">
<path d="M0 52.828V105.75C0 115.099 3.71383 124.065 10.3245 130.676C16.9351 137.286 25.9011 141 35.25 141H152.75C162.099 141 171.065 137.286 177.676 130.676C184.286 124.065 188 115.099 188 105.75V52.828L98.8175 92.966C97.3027 93.6469 95.6608 93.999 94 93.999C92.3392 93.999 90.6973 93.6469 89.1825 92.966L0 52.828ZM0.869499 27.448L94 69.372L187.131 27.448C185.361 19.6525 180.995 12.6898 174.748 7.70234C168.501 2.71491 160.744 -0.00107978 152.75 3.22031e-07H35.25C27.2562 -0.00107978 19.4994 2.71491 13.2523 7.70234C7.0052 12.6898 2.63879 19.6525 0.869499 27.448Z" fill="black"/>
</svg>
