<svg width="35" height="35" viewBox="0 0 35 35" fill="none" xmlns="http://www.w3.org/2000/svg">
<path d="M6.47304 26.473C6.47304 27.3871 7.34371 28.1331 8.41495 28.1331H10.6349V32.836C10.6349 34.0274 11.7518 35 13.1239 35C14.5005 35 15.6128 34.0313 15.6128 32.836V28.1292H19.4875V32.8321C19.4875 34.0235 20.6043 34.9961 21.9764 34.9961C23.3531 34.9961 24.4653 34.0274 24.4653 32.8321V28.1292H26.6853C27.7566 28.1292 28.6272 27.3832 28.6272 26.4691V11.0323H6.47304V26.473ZM22.7514 3.03267L24.7981 0.493723C24.9166 0.345292 24.8893 0.146082 24.7297 0.0484305C24.5702 -0.0453154 24.3423 0.00155775 24.2237 0.149989L22.0995 2.7905C20.7 2.31786 19.141 2.05615 17.5045 2.05615C15.8681 2.05615 14.3091 2.31786 12.9096 2.7905L10.7854 0.153895C10.6668 0.00546379 10.4389 -0.0453151 10.2794 0.0523368C10.1198 0.146083 10.0925 0.341386 10.211 0.497629L12.2577 3.03658C9.00299 4.3334 6.72375 6.79032 6.43201 9.66128H28.5862C28.2853 6.78641 26.0016 4.32949 22.7514 3.03267ZM12.8276 7.0364C12.585 7.0364 12.3479 6.97478 12.1463 6.85932C11.9446 6.74386 11.7875 6.57976 11.6947 6.38777C11.6019 6.19577 11.5776 5.9845 11.6249 5.78068C11.6722 5.57686 11.789 5.38963 11.9605 5.24269C12.132 5.09574 12.3505 4.99566 12.5883 4.95512C12.8262 4.91458 13.0727 4.93539 13.2968 5.01491C13.5209 5.09444 13.7124 5.22912 13.8471 5.40191C13.9819 5.5747 14.0538 5.77785 14.0538 5.98567C14.0529 6.26412 13.9235 6.53096 13.6937 6.72785C13.4639 6.92475 13.1525 7.03568 12.8276 7.0364ZM22.3274 7.0364C22.0849 7.0364 21.8478 6.97478 21.6462 6.85932C21.4445 6.74386 21.2873 6.57976 21.1945 6.38777C21.1017 6.19577 21.0774 5.9845 21.1247 5.78068C21.1721 5.57686 21.2889 5.38963 21.4603 5.24269C21.6318 5.09574 21.8503 4.99566 22.0882 4.95512C22.3261 4.91458 22.5726 4.93539 22.7967 5.01491C23.0207 5.09444 23.2123 5.22912 23.347 5.40191C23.4817 5.5747 23.5536 5.77785 23.5536 5.98567C23.5528 6.26412 23.4233 6.53096 23.1936 6.72785C22.9638 6.92475 22.6524 7.03568 22.3274 7.0364ZM32.5111 10.9698C31.1344 10.9698 30.0221 11.9385 30.0221 13.1338V21.5865C30.0221 22.7779 31.139 23.7505 32.5111 23.7505C33.8877 23.7505 35 22.7818 35 21.5865V13.1299C35.0045 11.9346 33.8923 10.9698 32.5111 10.9698ZM2.48893 10.9698C1.11227 10.9698 0 11.9385 0 13.1338V21.5865C0 22.7779 1.11683 23.7505 2.48893 23.7505C3.86559 23.7505 4.97786 22.7818 4.97786 21.5865V13.1299C4.97786 11.9346 3.86103 10.9698 2.48893 10.9698Z" fill="#495057"/>
</svg>
