<svg width="92" height="29" viewBox="0 0 92 29" fill="none" xmlns="http://www.w3.org/2000/svg">
<rect width="92" height="29" fill="#4F6BB5"/>
<path d="M20.684 19.072C20.06 19.072 19.46 18.972 18.884 18.772C18.316 18.572 17.876 18.308 17.564 17.98L17.912 17.296C18.216 17.6 18.62 17.848 19.124 18.04C19.628 18.224 20.148 18.316 20.684 18.316C21.436 18.316 22 18.18 22.376 17.908C22.752 17.628 22.94 17.268 22.94 16.828C22.94 16.492 22.836 16.224 22.628 16.024C22.428 15.824 22.18 15.672 21.884 15.568C21.588 15.456 21.176 15.336 20.648 15.208C20.016 15.048 19.512 14.896 19.136 14.752C18.76 14.6 18.436 14.372 18.164 14.068C17.9 13.764 17.768 13.352 17.768 12.832C17.768 12.408 17.88 12.024 18.104 11.68C18.328 11.328 18.672 11.048 19.136 10.84C19.6 10.632 20.176 10.528 20.864 10.528C21.344 10.528 21.812 10.596 22.268 10.732C22.732 10.86 23.132 11.04 23.468 11.272L23.168 11.98C22.816 11.748 22.44 11.576 22.04 11.464C21.64 11.344 21.248 11.284 20.864 11.284C20.128 11.284 19.572 11.428 19.196 11.716C18.828 11.996 18.644 12.36 18.644 12.808C18.644 13.144 18.744 13.416 18.944 13.624C19.152 13.824 19.408 13.98 19.712 14.092C20.024 14.196 20.44 14.312 20.96 14.44C21.576 14.592 22.072 14.744 22.448 14.896C22.832 15.04 23.156 15.264 23.42 15.568C23.684 15.864 23.816 16.268 23.816 16.78C23.816 17.204 23.7 17.592 23.468 17.944C23.244 18.288 22.896 18.564 22.424 18.772C21.952 18.972 21.372 19.072 20.684 19.072ZM31.2588 12.688V19H30.4428V17.848C30.2188 18.232 29.9108 18.532 29.5188 18.748C29.1268 18.956 28.6788 19.06 28.1748 19.06C27.3508 19.06 26.6988 18.832 26.2188 18.376C25.7468 17.912 25.5108 17.236 25.5108 16.348V12.688H26.3628V16.264C26.3628 16.928 26.5268 17.432 26.8548 17.776C27.1828 18.12 27.6508 18.292 28.2588 18.292C28.9228 18.292 29.4468 18.092 29.8308 17.692C30.2148 17.284 30.4068 16.72 30.4068 16V12.688H31.2588ZM36.897 12.64C37.489 12.64 38.025 12.776 38.505 13.048C38.985 13.312 39.361 13.688 39.633 14.176C39.905 14.664 40.041 15.22 40.041 15.844C40.041 16.468 39.905 17.024 39.633 17.512C39.361 18 38.985 18.38 38.505 18.652C38.025 18.924 37.489 19.06 36.897 19.06C36.369 19.06 35.893 18.948 35.469 18.724C35.053 18.5 34.717 18.176 34.461 17.752V19H33.645V10.096H34.497V13.888C34.761 13.48 35.097 13.172 35.505 12.964C35.921 12.748 36.385 12.64 36.897 12.64ZM36.837 18.304C37.277 18.304 37.677 18.204 38.037 18.004C38.397 17.796 38.677 17.504 38.877 17.128C39.085 16.752 39.189 16.324 39.189 15.844C39.189 15.364 39.085 14.936 38.877 14.56C38.677 14.184 38.397 13.896 38.037 13.696C37.677 13.488 37.277 13.384 36.837 13.384C36.389 13.384 35.985 13.488 35.625 13.696C35.273 13.896 34.993 14.184 34.785 14.56C34.585 14.936 34.485 15.364 34.485 15.844C34.485 16.324 34.585 16.752 34.785 17.128C34.993 17.504 35.273 17.796 35.625 18.004C35.985 18.204 36.389 18.304 36.837 18.304ZM43.4698 19.06C42.9578 19.06 42.4658 18.988 41.9938 18.844C41.5298 18.692 41.1658 18.504 40.9018 18.28L41.2858 17.608C41.5498 17.816 41.8818 17.988 42.2818 18.124C42.6818 18.252 43.0978 18.316 43.5298 18.316C44.1058 18.316 44.5298 18.228 44.8018 18.052C45.0818 17.868 45.2218 17.612 45.2218 17.284C45.2218 17.052 45.1458 16.872 44.9938 16.744C44.8418 16.608 44.6498 16.508 44.4178 16.444C44.1858 16.372 43.8778 16.304 43.4938 16.24C42.9818 16.144 42.5698 16.048 42.2578 15.952C41.9458 15.848 41.6778 15.676 41.4538 15.436C41.2378 15.196 41.1298 14.864 41.1298 14.44C41.1298 13.912 41.3498 13.48 41.7898 13.144C42.2298 12.808 42.8418 12.64 43.6258 12.64C44.0338 12.64 44.4418 12.696 44.8498 12.808C45.2578 12.912 45.5938 13.052 45.8578 13.228L45.4858 13.912C44.9658 13.552 44.3458 13.372 43.6258 13.372C43.0818 13.372 42.6698 13.468 42.3898 13.66C42.1178 13.852 41.9818 14.104 41.9818 14.416C41.9818 14.656 42.0578 14.848 42.2098 14.992C42.3698 15.136 42.5658 15.244 42.7978 15.316C43.0298 15.38 43.3498 15.448 43.7578 15.52C44.2618 15.616 44.6658 15.712 44.9698 15.808C45.2738 15.904 45.5338 16.068 45.7498 16.3C45.9658 16.532 46.0738 16.852 46.0738 17.26C46.0738 17.812 45.8418 18.252 45.3778 18.58C44.9218 18.9 44.2858 19.06 43.4698 19.06ZM50.2649 19.06C49.6409 19.06 49.0809 18.924 48.5849 18.652C48.0969 18.38 47.7129 18 47.4329 17.512C47.1529 17.016 47.0129 16.46 47.0129 15.844C47.0129 15.228 47.1529 14.676 47.4329 14.188C47.7129 13.7 48.0969 13.32 48.5849 13.048C49.0809 12.776 49.6409 12.64 50.2649 12.64C50.8089 12.64 51.2929 12.748 51.7169 12.964C52.1489 13.172 52.4889 13.48 52.7369 13.888L52.1009 14.32C51.8929 14.008 51.6289 13.776 51.3089 13.624C50.9889 13.464 50.6409 13.384 50.2649 13.384C49.8089 13.384 49.3969 13.488 49.0289 13.696C48.6689 13.896 48.3849 14.184 48.1769 14.56C47.9769 14.936 47.8769 15.364 47.8769 15.844C47.8769 16.332 47.9769 16.764 48.1769 17.14C48.3849 17.508 48.6689 17.796 49.0289 18.004C49.3969 18.204 49.8089 18.304 50.2649 18.304C50.6409 18.304 50.9889 18.228 51.3089 18.076C51.6289 17.924 51.8929 17.692 52.1009 17.38L52.7369 17.812C52.4889 18.22 52.1489 18.532 51.7169 18.748C51.2849 18.956 50.8009 19.06 50.2649 19.06ZM55.2267 13.924C55.4267 13.5 55.7227 13.18 56.1147 12.964C56.5147 12.748 57.0067 12.64 57.5907 12.64V13.468L57.3867 13.456C56.7227 13.456 56.2027 13.66 55.8267 14.068C55.4507 14.476 55.2627 15.048 55.2627 15.784V19H54.4107V12.688H55.2267V13.924ZM59.1333 12.688H59.9853V19H59.1333V12.688ZM59.5653 11.308C59.3893 11.308 59.2413 11.248 59.1213 11.128C59.0013 11.008 58.9413 10.864 58.9413 10.696C58.9413 10.536 59.0013 10.396 59.1213 10.276C59.2413 10.156 59.3893 10.096 59.5653 10.096C59.7413 10.096 59.8893 10.156 60.0093 10.276C60.1293 10.388 60.1893 10.524 60.1893 10.684C60.1893 10.86 60.1293 11.008 60.0093 11.128C59.8893 11.248 59.7413 11.308 59.5653 11.308ZM65.608 12.64C66.2 12.64 66.736 12.776 67.216 13.048C67.696 13.312 68.072 13.688 68.344 14.176C68.616 14.664 68.752 15.22 68.752 15.844C68.752 16.468 68.616 17.024 68.344 17.512C68.072 18 67.696 18.38 67.216 18.652C66.736 18.924 66.2 19.06 65.608 19.06C65.08 19.06 64.604 18.948 64.18 18.724C63.764 18.5 63.428 18.176 63.172 17.752V19H62.356V10.096H63.208V13.888C63.472 13.48 63.808 13.172 64.216 12.964C64.632 12.748 65.096 12.64 65.608 12.64ZM65.548 18.304C65.988 18.304 66.388 18.204 66.748 18.004C67.108 17.796 67.388 17.504 67.588 17.128C67.796 16.752 67.9 16.324 67.9 15.844C67.9 15.364 67.796 14.936 67.588 14.56C67.388 14.184 67.108 13.896 66.748 13.696C66.388 13.488 65.988 13.384 65.548 13.384C65.1 13.384 64.696 13.488 64.336 13.696C63.984 13.896 63.704 14.184 63.496 14.56C63.296 14.936 63.196 15.364 63.196 15.844C63.196 16.324 63.296 16.752 63.496 17.128C63.704 17.504 63.984 17.796 64.336 18.004C64.696 18.204 65.1 18.304 65.548 18.304ZM75.9848 16.108H70.7048C70.7528 16.764 71.0048 17.296 71.4608 17.704C71.9168 18.104 72.4928 18.304 73.1888 18.304C73.5808 18.304 73.9408 18.236 74.2688 18.1C74.5968 17.956 74.8808 17.748 75.1208 17.476L75.6008 18.028C75.3208 18.364 74.9688 18.62 74.5448 18.796C74.1288 18.972 73.6688 19.06 73.1648 19.06C72.5168 19.06 71.9408 18.924 71.4368 18.652C70.9408 18.372 70.5528 17.988 70.2728 17.5C69.9928 17.012 69.8528 16.46 69.8528 15.844C69.8528 15.228 69.9848 14.676 70.2488 14.188C70.5208 13.7 70.8888 13.32 71.3528 13.048C71.8248 12.776 72.3528 12.64 72.9368 12.64C73.5208 12.64 74.0448 12.776 74.5088 13.048C74.9728 13.32 75.3368 13.7 75.6008 14.188C75.8648 14.668 75.9968 15.22 75.9968 15.844L75.9848 16.108ZM72.9368 13.372C72.3288 13.372 71.8168 13.568 71.4008 13.96C70.9928 14.344 70.7608 14.848 70.7048 15.472H75.1808C75.1248 14.848 74.8888 14.344 74.4728 13.96C74.0648 13.568 73.5528 13.372 72.9368 13.372Z" fill="white"/>
</svg>
