<svg width="31" height="31" viewBox="0 0 31 31" fill="none" xmlns="http://www.w3.org/2000/svg">
<path d="M27.456 8.93952C26.621 9.30952 25.724 9.55952 24.781 9.67252C25.754 9.09031 26.4819 8.17398 26.829 7.09452C25.9148 7.63751 24.9143 8.01971 23.871 8.22452C23.1694 7.47538 22.2401 6.97884 21.2273 6.81199C20.2146 6.64514 19.1751 6.81731 18.2702 7.30177C17.3654 7.78623 16.6458 8.55588 16.2232 9.49122C15.8005 10.4266 15.6985 11.4753 15.933 12.4745C14.0807 12.3815 12.2686 11.9001 10.6144 11.0614C8.96022 10.2228 7.50084 9.04568 6.331 7.60652C5.931 8.29652 5.701 9.09652 5.701 9.94852C5.70055 10.7155 5.88943 11.4708 6.25088 12.1473C6.61232 12.8237 7.13516 13.4006 7.773 13.8265C7.03328 13.803 6.30987 13.6031 5.663 13.2435V13.3035C5.66293 14.3793 6.03503 15.4219 6.71618 16.2545C7.39733 17.0871 8.34557 17.6584 9.4 17.8715C8.71378 18.0572 7.99434 18.0846 7.296 17.9515C7.5935 18.8771 8.173 19.6865 8.95337 20.2664C9.73374 20.8463 10.6759 21.1677 11.648 21.1855C9.99783 22.4809 7.95989 23.1836 5.862 23.1805C5.49038 23.1806 5.11908 23.1589 4.75 23.1155C6.87948 24.4847 9.35834 25.2113 11.89 25.2085C20.46 25.2085 25.145 18.1105 25.145 11.9545C25.145 11.7545 25.14 11.5525 25.131 11.3525C26.0423 10.6935 26.8289 9.87741 27.454 8.94252L27.456 8.93952Z" fill="#495057"/>
<path d="M30.5 1H1V30.5H30.5V1Z" stroke="#495057" stroke-width="0.5"/>
</svg>
